# xmcd CD database file
#
# Track frame offsets:
#	150
#	24418
#	41712
#	68992
#	80339
#	101309
#	126124
#	147512
#	169877
#	188538
#	206024
#	220441
#	242223
#	259974
#	277229
#	296727
#	309077
#
# Disc length: 4427 seconds
#
# Revision: 0
# Processed by: cddbd v1.4PL0 Copyright (c) Steve Scherf et al.
# Submitted via: CDex 1.50
#
DISCID=06114911
DTITLE=Blues de Ville - Hip Shake
DYEAR=2001
DGENRE=Blues
TTITLE0=Hip Shake
TTITLE1=Big Boss Man
TTITLE2=I'd Rather Go Blind
TTITLE3=7 Nights
TTITLE4=Born in Chicago
TTITLE5=Dyin' on the Vine
TTITLE6=She's About a Mover
TTITLE7=Let It Roll
TTITLE8=24 Hours
TTITLE9=Don't Deceive Me
TTITLE10=Jumpin' from Six to Six
TTITLE11=Drivin' Wheel
TTITLE12=Mojo Boogie
TTITLE13=Come On Home
TTITLE14=Good to my Baby
TTITLE15=Iko Iko
TTITLE16=Maybellene
EXTD=YEAR: 2001
EXTT0=
EXTT1=
EXTT2=
EXTT3=
EXTT4=
EXTT5=
EXTT6=
EXTT7=
EXTT8=
EXTT9=
EXTT10=
EXTT11=
EXTT12=
EXTT13=
EXTT14=
EXTT15=
EXTT16=
PLAYORDER=
